<?xml version="1.0" standalone="no"?>
<!DOCTYPE svg PUBLIC "-//W3C//DTD SVG 20010904//EN"
 "http://www.w3.org/TR/2001/REC-SVG-20010904/DTD/svg10.dtd">
<svg version="1.0" xmlns="http://www.w3.org/2000/svg"
 width="800.000000pt" height="533.000000pt" viewBox="0 0 800.000000 533.000000"
 preserveAspectRatio="xMidYMid meet">

<g transform="translate(0.000000,533.000000) scale(0.100000,-0.100000)"
fill="#000000" stroke="none">
<path d="M1585 4860 c-22 -3 25 -4 105 -2 159 4 298 -12 423 -49 94 -28 161
-93 200 -193 15 -38 25 -71 24 -73 -2 -1 -21 32 -43 75 -21 42 -43 77 -49 77
-5 0 -30 15 -54 33 -46 34 -133 65 -217 78 -43 7 -46 9 -24 16 17 5 10 6 -22
3 -27 -3 -48 -1 -48 4 0 13 -33 19 -55 10 -16 -6 -13 -8 14 -8 l34 -1 -20 -22
c-11 -13 -30 -40 -43 -61 -29 -50 -37 -41 -10 13 12 23 19 47 17 53 -2 7 -12
-4 -22 -23 -10 -19 -21 -37 -24 -40 -45 -37 -174 -309 -228 -483 -4 -12 -11
-16 -22 -11 -33 14 -115 23 -162 18 -32 -4 -55 -1 -65 6 -7 7 -14 9 -14 5 0
-4 -6 -2 -14 5 -12 9 -24 6 -59 -14 -24 -14 -59 -27 -78 -27 -30 -2 -31 -2 -6
-6 15 -2 27 -10 27 -18 0 -10 -7 -12 -31 -5 -17 5 -49 7 -70 5 -37 -3 -39 -2
-33 18 13 44 132 195 210 268 111 103 271 178 427 200 86 12 86 12 84 40 -1
20 -6 27 -17 24 -31 -9 -216 -14 -229 -6 -10 7 -6 10 15 15 52 10 188 24 226
22 67 -2 45 19 -27 26 -118 13 -282 -20 -397 -78 -27 -14 -48 -22 -48 -19 0
15 -85 -58 -179 -154 -140 -143 -289 -376 -332 -520 -8 -27 -21 -47 -35 -53
-20 -9 -40 -36 -32 -43 2 -1 57 -14 123 -28 561 -121 755 -164 915 -203 102
-25 278 -67 391 -94 220 -52 289 -74 273 -90 -5 -5 -70 -12 -144 -15 -136 -6
-171 -2 -341 43 -20 5 -60 7 -88 4 -34 -3 -51 -1 -51 7 0 6 -17 11 -40 11 -61
0 -47 -17 20 -25 52 -6 60 -10 55 -25 -7 -21 19 -44 40 -36 9 3 18 -1 21 -9 4
-8 14 -15 24 -15 28 0 122 -58 155 -96 11 -13 169 -67 201 -68 11 -1 27 -6 35
-12 8 -7 40 -19 73 -28 l58 -17 -6 -162 c-3 -89 -6 -177 -6 -195 0 -31 -1 -32
-32 -27 -17 3 -52 14 -77 24 -25 10 -111 39 -191 65 -276 88 -399 119 -386 98
3 -6 -1 -15 -10 -20 -13 -7 -10 -10 15 -15 22 -5 29 -11 25 -22 -4 -10 0 -15
10 -15 9 0 16 -4 16 -10 0 -5 -4 -10 -10 -10 -26 0 -6 -20 30 -31 31 -10 38
-15 29 -25 -13 -16 3 -23 91 -44 30 -8 60 -17 66 -22 6 -4 46 -19 90 -32 80
-24 223 -78 301 -112 47 -21 49 -26 32 -104 -9 -40 -14 -50 -27 -46 -10 3 -53
16 -97 30 -44 14 -107 32 -140 40 -59 14 -174 46 -305 86 -36 10 -78 22 -95
25 l-30 6 33 -15 c31 -15 46 -34 17 -23 -8 4 -17 2 -20 -3 -4 -6 0 -10 7 -11
43 -2 72 -10 87 -23 9 -8 30 -14 46 -13 26 2 30 -1 30 -23 0 -27 25 -43 50
-34 20 8 59 -38 41 -48 -17 -10 -99 12 -112 30 -9 12 -24 14 -75 8 -38 -4 -59
-3 -51 2 17 11 -30 23 -108 27 -30 2 -77 6 -105 9 -37 4 -42 3 -20 -3 17 -5
44 -16 60 -25 17 -9 37 -16 45 -16 25 -1 285 -80 440 -135 58 -21 157 -52 220
-69 l114 -32 17 -120 c15 -104 22 -143 43 -240 4 -21 -3 -20 -142 26 -145 48
-354 111 -707 216 -99 29 -181 58 -183 63 -2 6 -7 9 -11 6 -5 -2 -45 8 -91 24
-53 18 -77 30 -66 34 27 11 18 22 -19 23 -19 0 -35 -3 -35 -8 0 -4 8 -8 17 -8
9 0 14 -3 10 -6 -3 -3 -34 3 -69 15 -35 11 -105 32 -157 45 -120 32 -155 19
-39 -14 46 -13 157 -47 248 -77 91 -29 314 -98 495 -154 408 -125 662 -205
827 -260 l127 -43 7 -63 c3 -35 5 -66 2 -68 -7 -7 -122 55 -135 72 -7 9 -13
25 -13 35 0 15 6 17 47 12 38 -4 45 -3 36 8 -19 22 -126 55 -131 40 -2 -7 -8
-9 -14 -6 -6 4 -5 10 3 15 11 7 11 9 -1 8 -20 -1 -58 -17 -42 -18 7 -1 11 -5
8 -9 -3 -4 9 -7 25 -6 24 2 32 -3 40 -23 17 -45 12 -53 -23 -42 -18 5 -56 20
-84 34 -28 14 -59 25 -69 25 -20 0 -80 17 -107 31 -10 5 -29 9 -42 9 -14 0
-28 5 -31 11 -4 6 -13 8 -21 5 -8 -3 -14 -1 -14 5 0 6 -9 8 -21 4 -15 -5 -19
-4 -14 5 4 7 2 10 -6 9 -8 -1 -21 0 -29 4 -28 10 -75 20 -87 18 -7 -1 -13 3
-13 9 0 5 -14 10 -30 10 -17 0 -38 4 -48 9 -9 6 -46 19 -81 31 -35 12 -76 27
-92 35 -15 8 -36 12 -45 8 -11 -4 -15 -2 -11 4 4 6 -28 19 -81 33 -48 12 -91
26 -97 31 -5 5 -23 9 -40 9 -24 0 -27 2 -15 11 12 8 10 10 -10 5 -24 -5 -24
-4 -6 9 11 8 16 15 11 15 -4 0 0 9 10 20 18 20 17 20 -13 20 -17 0 -34 5 -37
10 -11 18 -43 10 -50 -12 l-8 -23 -4 23 c-4 19 -7 21 -19 11 -12 -10 -12 -14
-2 -21 8 -6 0 -7 -22 -4 -19 3 -46 8 -60 10 -14 2 -52 11 -85 21 -33 9 -89 18
-125 20 l-65 4 -27 75 c-18 51 -23 76 -15 76 7 0 8 3 2 8 -5 4 -36 86 -68 182
-88 263 -125 358 -169 433 -70 121 -123 167 -191 167 -80 0 -127 -110 -135
-315 -2 -71 -9 -133 -14 -136 -16 -10 -21 -165 -10 -277 11 -110 26 -147 67
-162 14 -5 26 -20 29 -32 2 -13 11 -67 19 -120 17 -105 92 -309 124 -334 37
-29 93 -54 169 -74 90 -23 122 -24 260 -8 120 13 154 9 454 -58 557 -125 868
-210 1324 -360 227 -75 316 -109 364 -142 14 -10 63 -250 56 -278 -5 -24 8
-40 74 -92 91 -71 193 -88 647 -102 154 -5 348 -14 430 -20 83 -6 274 -13 425
-17 312 -6 309 -7 900 92 843 141 841 140 1160 210 85 18 191 38 235 44 44 6
118 15 164 21 159 22 172 50 46 109 -40 19 -219 116 -233 127 -2 1 6 21 18 45
29 57 72 170 66 176 -2 2 -118 -12 -258 -31 -359 -50 -455 -63 -703 -90 -919
-104 -1358 -134 -1650 -116 -225 14 -274 19 -326 31 -25 5 -50 9 -55 8 -5 -1
-18 1 -29 5 -61 23 -61 23 -13 31 26 4 45 11 42 16 -3 5 -23 6 -44 3 -38 -6
-39 -6 -42 27 -2 22 -8 34 -18 34 -19 0 -26 -35 -8 -46 8 -6 9 -9 1 -9 -6 0
-18 -6 -25 -13 -20 -19 -116 -10 -121 11 -3 11 -5 9 -6 -6 -1 -33 -18 -19 -24
20 -2 18 -19 87 -37 153 -56 210 -58 225 -25 192 28 -28 143 -54 260 -57 40
-1 40 -1 15 -15 -25 -14 -25 -14 -2 -15 12 0 22 -6 22 -12 0 -7 19 -26 42 -42
l41 -30 23 30 c27 33 30 50 12 57 -10 4 -10 6 0 6 6 1 12 8 12 16 0 8 6 15 13
15 6 0 19 5 27 10 13 8 13 11 1 19 -7 5 -11 13 -7 19 5 8 52 22 88 26 15 2 20
16 5 16 -10 0 -17 6 -17 13 0 6 -15 21 -33 31 l-32 20 55 7 c30 5 203 6 383 4
338 -4 427 1 1041 56 65 6 122 7 127 2 4 -4 9 -21 11 -38 2 -24 9 -31 33 -36
24 -5 20 -7 -21 -8 l-52 -1 -11 -46 c-14 -55 -24 -56 -12 -1 9 37 9 37 -23 37
-18 0 -102 -6 -187 -14 -85 -8 -262 -22 -394 -31 -322 -21 -392 -31 -491 -66
-100 -37 -123 -61 -126 -139 -2 -49 0 -55 32 -82 19 -16 45 -31 58 -34 53 -14
14 -24 -95 -25 -65 0 -134 -2 -153 -4 -19 -2 -40 1 -47 6 -7 7 -14 6 -18 -1
-3 -5 -16 -10 -28 -10 -12 0 -35 -7 -51 -15 -15 -8 -32 -12 -37 -9 -6 3 -16 1
-23 -5 -11 -9 -18 -8 -29 4 -18 17 -33 19 -42 5 -10 -16 36 -49 67 -50 15 0
29 -4 32 -8 3 -5 26 -10 52 -10 25 -1 50 -5 55 -8 12 -7 544 -6 674 1 317 18
820 71 1280 136 44 6 96 13 115 15 19 2 44 6 56 9 29 6 268 40 459 64 88 12
187 25 220 31 263 42 332 55 414 76 117 31 189 61 193 82 6 26 -3 62 -13 56
-5 -3 -9 4 -9 15 0 11 4 23 10 26 15 10 12 28 -4 22 -11 -5 -11 0 2 23 9 16
19 27 21 24 7 -7 34 97 35 136 1 34 0 35 -36 33 -20 -1 -54 -10 -75 -20 l-38
-17 38 -4 c45 -4 62 -34 52 -94 -6 -31 -13 -40 -49 -58 -24 -11 -67 -21 -99
-23 -56 -2 -68 -12 -45 -35 16 -16 7 -23 -39 -29 -48 -6 -78 17 -69 53 4 14 1
24 -6 27 -7 2 -6 3 4 2 18 -3 53 64 51 98 -1 12 3 27 9 34 14 17 -29 17 -151
-2 -52 -8 -98 -12 -101 -10 -7 4 -7 24 -2 98 2 30 32 39 33 10 0 -15 2 -15 9
2 6 15 9 16 9 4 1 -21 14 -21 159 2 94 15 134 26 175 49 43 24 65 30 113 30
34 0 66 5 73 13 11 10 12 9 6 -2 -6 -11 -4 -13 9 -8 14 6 16 3 12 -16 -4 -14
-1 -11 9 8 16 35 21 241 5 265 -8 13 -10 13 -10 -2 0 -23 -38 -42 -125 -63
-38 -9 -90 -23 -115 -30 -50 -14 -153 -37 -245 -55 -33 -6 -75 -15 -92 -20
-28 -7 -33 -6 -33 10 0 51 -31 61 -125 40 -32 -7 -26 -8 31 -4 l71 5 6 -53
c12 -96 8 -268 -5 -273 -32 -12 -1222 -155 -1229 -148 -4 4 -10 76 -14 158 -5
117 -3 154 7 166 10 13 73 23 298 48 157 18 312 36 345 41 60 9 59 9 -20 5
-56 -2 -71 -1 -51 5 16 5 51 11 78 12 48 3 69 18 24 18 -38 0 -808 -80 -814
-85 -1 -1 3 -17 10 -35 10 -31 9 -35 -16 -57 -26 -22 -54 -28 -104 -24 -13 1
-76 -5 -140 -13 -64 -9 -225 -18 -357 -20 -197 -4 -270 -2 -410 14 -270 32
-535 80 -632 117 -77 28 -57 42 97 65 63 9 198 19 300 23 178 5 735 33 1080
55 281 17 1264 115 1460 146 52 8 172 26 265 39 341 50 346 51 315 70 -5 3
-10 25 -10 49 0 54 -7 60 -38 35 -48 -37 -288 -88 -333 -70 -22 9 -11 17 16
12 5 -2 47 3 95 9 189 24 304 90 223 127 -27 13 -42 5 -43 -23 0 -33 -103 -68
-239 -80 -39 -4 -68 -11 -65 -15 3 -5 1 -9 -3 -9 -15 0 -33 23 -33 42 0 10 -4
18 -10 18 -5 0 -10 8 -11 18 0 14 -2 14 -8 -3 -5 -11 -14 -38 -21 -60 -11 -35
-40 -78 -40 -60 0 4 -9 -3 -21 -16 -17 -20 -20 -21 -15 -5 6 16 4 17 -9 6 -8
-7 -12 -16 -9 -21 5 -9 -22 -14 -61 -11 -14 2 -16 0 -7 -6 18 -12 -122 -34
-225 -36 -45 0 -85 -4 -89 -8 -4 -5 -17 -8 -28 -7 -18 1 -18 2 4 9 21 7 22 8
5 9 -12 1 -26 -4 -32 -10 -8 -8 -17 -8 -32 1 -12 6 -26 8 -32 5 -5 -4 -49 -8
-97 -10 -131 -5 -233 -15 -253 -26 -10 -5 -24 -9 -31 -8 -7 0 -4 4 7 9 19 8
19 9 -2 9 -12 1 -25 -4 -28 -9 -4 -6 -11 -8 -16 -4 -5 3 -16 1 -23 -6 -8 -6
-25 -8 -39 -5 -14 4 -28 2 -31 -3 -3 -6 -15 -8 -25 -5 -10 3 -22 0 -25 -6 -4
-6 -32 -11 -62 -11 -34 0 -53 -4 -49 -10 4 -6 -13 -11 -42 -12 -26 -1 -64 -3
-83 -4 -198 -11 -273 -12 -294 -4 -16 6 -27 6 -31 0 -12 -19 -131 123 -168
202 -51 106 -194 213 -353 267 -78 26 -301 71 -345 70 -19 -1 7 -7 56 -15 136
-21 258 -59 381 -119 128 -62 206 -134 219 -202 21 -107 17 -127 -28 -142 -26
-9 -349 -26 -407 -23 -8 1 -33 2 -55 2 -22 1 -54 8 -73 17 -31 15 -92 89 -92
113 0 6 -4 9 -9 6 -5 -4 -7 4 -4 16 4 19 3 20 -6 8 -10 -13 -11 -13 -11 0 0
13 -1 13 -11 0 -8 -12 -9 -10 -4 9 5 17 4 21 -5 16 -9 -5 -10 -1 -5 16 4 17 3
20 -3 10 -8 -11 -11 -9 -17 8 -4 13 -9 21 -11 18 -2 -2 3 -20 11 -40 8 -20 12
-44 8 -53 -5 -15 -8 -14 -15 6 -5 13 -11 21 -14 18 -8 -8 18 -58 27 -52 11 6
12 -20 2 -30 -4 -3 -13 4 -20 16 l-14 23 6 -22 c5 -17 2 -23 -9 -23 -10 0 -13
6 -10 18 5 15 4 15 -5 1 -8 -12 -21 -14 -66 -9 -31 3 -65 6 -76 5 -10 -1 -19
1 -19 5 0 4 -11 5 -24 3 -23 -5 -85 28 -94 49 -2 5 -7 6 -12 3 -5 -3 -12 5
-16 17 -8 26 24 57 38 35 4 -6 8 -7 8 -2 0 6 5 2 11 -8 6 -9 14 -15 19 -12 5
3 11 -3 15 -14 8 -26 26 -21 63 17 31 32 36 43 33 70 -1 7 4 15 12 18 8 3 13
18 12 37 -1 31 -9 37 -23 21 -4 -4 -1 -4 7 1 10 5 12 4 7 -4 -4 -6 -12 -9 -17
-5 -5 3 -7 9 -4 14 3 4 -6 15 -19 23 -18 12 -26 13 -35 4 -10 -9 -12 -9 -9 2
2 7 -5 15 -15 16 -13 2 -15 0 -9 -8 21 -27 20 -56 -2 -76 -41 -38 -99 -10 -70
34 8 12 11 25 7 29 -4 4 0 4 9 1 9 -4 19 -2 23 4 3 6 -3 12 -14 12 -29 2 -34
3 -47 11 -6 4 -14 4 -18 1 -4 -4 -15 -8 -26 -10 -27 -4 -16 21 16 35 25 12 33
34 12 31 -7 -1 -20 -1 -27 0 -47 4 84 50 148 52 34 2 34 2 6 6 -16 3 -37 10
-45 17 -8 7 -22 16 -30 20 -9 5 -8 2 3 -7 24 -20 22 -22 -25 -36 -59 -17 -135
-67 -155 -102 -13 -22 -19 -25 -27 -15 -6 8 -182 71 -391 141 -605 202 -660
224 -808 319 -62 40 -91 44 -57 9 28 -31 25 -38 -7 -15 -16 10 -37 22 -48 26
-11 4 -48 26 -83 49 -57 38 -62 44 -57 69 5 22 3 27 -8 22 -10 -3 -16 3 -19
19 -3 15 0 24 8 24 7 0 10 -7 7 -14 -7 -17 18 -13 33 6 9 11 21 11 70 2 32 -7
76 -15 97 -18 30 -4 37 -9 32 -23 -5 -14 5 -19 62 -30 38 -7 79 -13 93 -14 14
-1 31 -5 38 -9 6 -5 17 -5 23 -1 15 9 -9 23 -41 25 -15 0 -19 3 -11 6 15 6 7
11 -118 72 -66 32 -86 38 -76 21 14 -22 -15 -8 -37 18 -25 30 -57 54 -44 34
13 -22 -10 -12 -32 13 -12 14 -28 25 -36 25 -20 0 -40 26 -26 35 6 3 8 11 4
16 -3 6 5 22 17 37 l24 26 -39 -23 c-39 -22 -63 -21 -33 2 14 11 14 14 2 31
-15 19 -15 19 -16 -5 l-1 -24 -8 25 c-11 36 -11 52 0 45 6 -3 10 -1 10 4 0 6
-4 11 -8 11 -4 0 -14 35 -21 78 -31 183 -126 587 -163 697 -56 163 -124 233
-258 266 -132 33 -393 48 -505 29z m-118 -96 c-3 -3 -12 -4 -19 -1 -8 3 -5 6
6 6 11 1 17 -2 13 -5z m673 -91 c30 -8 64 -23 74 -32 11 -9 36 -53 58 -99 40
-87 49 -142 23 -142 -8 0 -15 5 -15 11 0 6 -14 9 -32 7 -29 -3 -36 -10 -61
-60 -28 -58 -28 -58 -73 -58 -38 0 -46 4 -56 25 -9 19 -14 22 -29 15 -12 -7
-26 -6 -42 1 -16 7 -43 8 -85 2 -60 -10 -62 -9 -62 12 0 26 60 197 91 262 11
24 33 52 47 63 29 23 58 22 162 -7z m-286 -388 c12 -13 32 -13 133 -5 149 12
163 12 163 0 0 -22 -41 -51 -63 -45 -12 4 -30 9 -41 12 -12 3 -16 1 -12 -6 10
-16 -24 -14 -56 3 -16 8 -28 11 -28 5 0 -5 -11 -9 -24 -9 -13 0 -26 -4 -28
-10 -1 -5 -13 -7 -25 -4 -14 4 -20 11 -16 21 4 9 -1 19 -10 25 -10 5 -17 13
-17 18 0 14 6 12 24 -5z m-14 -56 c0 -4 -7 -6 -15 -3 -8 4 -15 10 -15 15 0 4
7 6 15 3 8 -4 15 -10 15 -15z m19 -51 c6 -18 7 -28 2 -23 -10 12 -25 55 -18
55 3 0 10 -15 16 -32z m598 -150 c-3 -8 -6 -5 -6 6 -1 11 2 17 5 13 3 -3 4
-12 1 -19z m-264 -21 c28 -6 53 -19 58 -29 7 -13 6 -18 -5 -18 -8 0 -17 -14
-21 -31 -6 -25 -2 -36 21 -60 15 -16 34 -29 41 -29 7 0 13 -4 13 -9 0 -5 9
-13 21 -16 23 -8 22 -33 -2 -48 -36 -22 -139 79 -139 138 0 39 -49 72 -122 79
-65 7 -160 -3 -212 -23 -37 -15 -43 -8 -12 12 30 20 98 36 191 46 73 8 89 7
168 -12z m274 -49 c-3 -8 -6 -5 -6 6 -1 11 2 17 5 13 3 -3 4 -12 1 -19z
m-1494 -5 c-7 -2 -19 -2 -25 0 -7 3 -2 5 12 5 14 0 19 -2 13 -5z m307 -59
c113 -25 207 -48 210 -51 8 -9 -40 1 -260 50 -242 54 -259 58 -200 51 25 -2
137 -25 250 -50z m473 -14 c3 -11 1 -18 -4 -14 -5 3 -9 12 -9 20 0 20 7 17 13
-6z m647 -53 c0 -7 -9 -18 -20 -25 -16 -10 -20 -10 -20 1 0 14 20 37 32 37 4
0 8 -6 8 -13z m-575 -17 c3 -5 1 -10 -4 -10 -6 0 -11 5 -11 10 0 6 2 10 4 10
3 0 8 -4 11 -10z m-88 -26 c-3 -3 -12 -4 -19 -1 -8 3 -5 6 6 6 11 1 17 -2 13
-5z m183 -224 c0 -5 -4 -10 -9 -10 -6 0 -13 5 -16 10 -3 6 1 10 9 10 9 0 16
-4 16 -10z m568 -20 c18 0 15 -19 -13 -75 -24 -50 -34 -50 -15 -1 7 19 6 26
-3 26 -7 0 -21 10 -31 21 -15 18 -16 23 -5 30 8 5 23 7 34 4 11 -2 26 -5 33
-5z m326 -65 c3 -8 1 -15 -4 -15 -6 0 -10 7 -10 15 0 8 2 15 4 15 2 0 6 -7 10
-15z m-337 -97 c-3 -8 -6 -5 -6 6 -1 11 2 17 5 13 3 -3 4 -12 1 -19z m-21
-127 c5 9 10 8 18 -3 9 -12 38 -24 76 -32 3 -1 14 -7 25 -13 18 -11 18 -12 3
-13 -11 0 -18 -8 -18 -21 0 -11 -4 -18 -10 -14 -5 3 -13 -9 -18 -27 -10 -35 5
-58 37 -58 14 0 14 -1 1 -10 -12 -7 -8 -10 15 -10 35 0 48 8 62 35 10 18 1 65
-11 65 -3 0 -3 -8 1 -17 6 -17 5 -17 -14 0 -11 9 -25 17 -31 17 -7 0 -12 4
-12 9 0 15 102 5 111 -11 7 -11 9 -11 9 1 0 9 4 10 13 4 15 -12 92 -40 135
-48 17 -4 32 -10 32 -15 0 -5 21 -12 48 -15 26 -4 57 -13 69 -21 12 -8 34 -14
48 -14 14 0 28 -7 31 -15 4 -8 14 -15 24 -15 11 0 22 -4 25 -10 3 -5 21 -10
38 -10 18 0 41 -7 51 -15 11 -8 30 -15 43 -15 13 0 23 -4 23 -10 0 -5 12 -10
26 -10 14 0 38 -6 52 -14 15 -8 74 -38 132 -66 122 -61 199 -129 225 -198 24
-62 15 -141 -22 -194 -45 -66 -59 -71 -159 -59 l-88 11 -90 94 c-50 52 -117
111 -149 131 -76 47 -261 96 -241 63 4 -6 3 -8 -4 -4 -11 6 -137 -55 -157 -76
-7 -8 -5 -8 5 -3 13 8 13 6 1 -8 -7 -9 -17 -14 -22 -11 -5 3 -9 -3 -9 -13 -1
-23 -27 -59 -37 -49 -4 4 -1 11 7 16 12 7 9 13 -13 32 -21 19 -27 32 -27 65 0
63 -47 98 -277 205 -13 6 -23 22 -26 42 -3 22 7 303 13 355 0 2 6 -2 14 -8 11
-9 16 -9 22 0z m-569 -237 c-3 -3 -12 -4 -19 -1 -8 3 -5 6 6 6 11 1 17 -2 13
-5z m10 -90 c-3 -3 -12 -4 -19 -1 -8 3 -5 6 6 6 11 1 17 -2 13 -5z m-1313 -59
c19 -15 19 -15 -2 -15 -12 0 -22 5 -22 10 0 6 -4 10 -10 10 -5 0 -7 -7 -4 -15
5 -11 0 -14 -20 -13 -29 3 -32 8 -14 26 16 16 49 15 72 -3z m1416 0 c0 -9 -6
-12 -16 -8 -13 5 -13 7 -2 14 17 11 18 11 18 -6z m-1375 -69 c57 -75 97 -243
93 -395 l-2 -86 -3 73 c-4 80 -14 88 -73 57 -44 -23 -67 -74 -32 -71 14 1 18
-11 22 -79 6 -78 21 -125 41 -125 5 0 14 10 19 23 15 38 11 7 -7 -49 -38 -123
-117 -149 -173 -58 -17 26 -20 38 -11 47 6 6 12 22 12 36 2 25 2 25 6 3 3 -17
9 -21 23 -17 11 3 20 0 24 -10 3 -8 12 -15 19 -15 11 0 10 12 -7 59 -23 66
-52 94 -71 67 -10 -13 -13 -4 -18 52 -4 37 -7 86 -7 109 0 23 -4 52 -9 65 -36
93 -34 157 6 251 24 55 40 31 19 -29 -17 -50 -22 -105 -8 -89 16 18 32 92 32
147 0 30 3 58 7 61 3 4 21 7 39 7 26 0 39 -8 59 -34z m3392 -18 c-3 -8 -6 -5
-6 6 -1 11 2 17 5 13 3 -3 4 -12 1 -19z m1 -93 c0 -16 -2 -15 -8 5 -4 14 -8
36 -8 50 0 22 1 22 8 -5 4 -16 8 -39 8 -50z m79 23 c-3 -10 -1 -21 4 -24 5 -3
9 -11 9 -17 0 -7 -6 -4 -14 5 -7 10 -16 15 -19 11 -4 -3 -7 -1 -7 5 0 5 6 13
13 15 7 3 5 6 -5 6 -10 1 -18 5 -18 10 0 6 9 9 21 8 14 -1 19 -7 16 -19z
m3127 -50 c-2 -9 1 -20 7 -24 9 -5 10 -2 6 9 -3 10 -2 17 3 17 17 0 20 -18 5
-30 -8 -7 -15 -9 -15 -4 -1 12 -24 -28 -26 -45 -2 -12 -25 -33 -31 -28 -1 1 8
35 20 75 13 44 24 67 29 59 4 -6 5 -19 2 -29z m-4676 -16 c113 -48 129 -61
112 -92 -12 -22 -11 -23 21 -16 19 3 36 11 38 17 1 5 9 2 16 -7 10 -15 8 -31
-11 -93 -13 -42 -24 -84 -24 -94 0 -11 -5 -15 -11 -11 -8 4 -9 -1 -4 -17 5
-19 4 -21 -4 -9 -6 8 -11 25 -11 38 0 26 -26 59 -32 41 -2 -5 -11 -7 -21 -4
-9 4 -14 11 -11 16 3 6 0 16 -6 24 -10 12 -10 15 1 15 10 1 8 4 -3 11 -10 5
-24 9 -30 8 -16 -3 -68 22 -68 32 0 4 -12 6 -27 5 -35 -4 -53 3 -53 20 0 7 -7
17 -16 22 -13 7 -14 17 -3 75 15 79 8 78 147 19z m-585 11 c-7 -2 -21 -2 -30
0 -10 3 -4 5 12 5 17 0 24 -2 18 -5z m2124 -89 c15 -16 42 -40 58 -53 17 -12
23 -19 15 -15 -56 28 -141 125 -140 158 1 6 9 -5 20 -25 10 -19 31 -49 47 -65z
m13 68 c0 -15 -2 -15 -10 -2 -13 20 -13 33 0 25 6 -3 10 -14 10 -23z m35 -8
c9 -15 12 -23 6 -20 -11 7 -35 46 -28 46 3 0 12 -12 22 -26z m-2122 -11 c-7
-2 -19 -2 -25 0 -7 3 -2 5 12 5 14 0 19 -2 13 -5z m77 -60 c11 -10 33 -21 48
-25 19 -5 16 -6 -13 -3 -22 3 -41 9 -43 15 -2 5 -12 10 -22 10 -10 0 -22 5
-25 10 -11 17 34 11 55 -7z m2135 -6 c19 -4 19 -5 -1 -6 -12 0 -28 7 -35 17
-12 15 -12 16 1 6 8 -7 24 -14 35 -17z m-3418 -29 c-3 -8 -6 -5 -6 6 -1 11 2
17 5 13 3 -3 4 -12 1 -19z m3729 -10 c17 -27 -98 -63 -156 -49 -33 8 -34 9 -7
11 15 1 36 4 47 5 11 1 27 3 35 4 8 0 15 9 15 19 0 11 -3 13 -8 6 -5 -9 -10
-8 -20 2 -10 11 -4 13 38 13 28 -1 53 -6 56 -11z m856 -136 c-42 -2 -59 1 -68
12 -6 9 -18 16 -27 16 -9 0 -19 5 -22 10 -3 6 -12 10 -18 10 -9 0 -9 -2 -1 -8
17 -10 -551 -14 -676 -4 -86 7 -48 9 205 10 434 3 511 14 536 79 9 25 10 24
68 -48 l59 -74 -56 -3z m-4930 40 c4 -37 10 -92 14 -123 3 -33 2 -64 -4 -74
-8 -15 -12 -9 -21 34 -6 29 -11 64 -11 79 0 21 -2 24 -10 12 -8 -12 -10 -12
-10 5 0 11 -3 31 -7 44 -4 17 -3 22 5 17 9 -5 12 8 12 45 0 76 23 48 32 -39z
m6021 81 c-7 -2 -19 -2 -25 0 -7 3 -2 5 12 5 14 0 19 -2 13 -5z m-5676 -25
c-3 -8 -6 -5 -6 6 -1 11 2 17 5 13 3 -3 4 -12 1 -19z m0 -50 c-3 -8 -6 -5 -6
6 -1 11 2 17 5 13 3 -3 4 -12 1 -19z m2853 -49 c43 -9 50 -14 45 -30 -9 -29
43 -78 127 -119 40 -19 72 -39 70 -45 -1 -5 -26 -9 -55 -9 -70 2 -287 37 -287
46 0 4 -12 33 -27 65 -33 71 -36 92 -12 86 10 -3 26 0 36 6 23 13 41 13 103 0z
m-1003 -21 c-3 -8 -6 -5 -6 6 -1 11 2 17 5 13 3 -3 4 -12 1 -19z m-109 -57
c56 -18 110 -31 120 -29 15 3 17 -7 16 -97 -2 -148 -15 -277 -28 -272 -6 2
-42 14 -81 27 -77 25 -93 36 -99 67 -3 11 -9 38 -16 59 -16 58 -50 244 -50
277 0 28 1 29 18 15 9 -9 63 -30 120 -47z m-1841 -48 c-3 -10 -5 -4 -5 12 0
17 2 24 5 18 2 -7 2 -21 0 -30z m5736 30 c-7 -2 -19 -2 -25 0 -7 3 -2 5 12 5
14 0 19 -2 13 -5z m-90 -10 c-13 -2 -33 -2 -45 0 -13 2 -3 4 22 4 25 0 35 -2
23 -4z m-5826 -35 c-3 -8 -6 -5 -6 6 -1 11 2 17 5 13 3 -3 4 -12 1 -19z m818
12 c-3 -5 -10 -10 -16 -10 -5 0 -9 5 -9 10 0 6 7 10 16 10 8 0 12 -4 9 -10z
m4692 -6 c-3 -3 -12 -4 -19 -1 -8 3 -5 6 6 6 11 1 17 -2 13 -5z m-40 -10 c-3
-3 -12 -4 -19 -1 -8 3 -5 6 6 6 11 1 17 -2 13 -5z m-2799 -126 c6 -24 11 -78
11 -121 1 -104 29 -227 51 -227 5 0 10 -26 12 -57 3 -44 0 -64 -14 -85 -21
-30 -25 -99 -6 -96 9 2 15 -25 19 -94 4 -53 9 -100 12 -105 5 -10 -19 -243
-27 -250 -17 -18 -75 78 -76 124 0 12 9 27 20 33 17 9 24 7 40 -12 11 -13 19
-21 19 -18 1 17 -38 150 -52 175 -14 28 -16 29 -24 10 -7 -17 -9 -15 -14 15
-5 26 -7 18 -8 -34 0 -38 -3 -67 -6 -64 -10 10 -34 184 -39 293 -7 125 7 117
19 -10 4 -43 11 -90 16 -104 11 -34 1 141 -11 194 -27 124 -32 170 -26 237 11
115 16 137 32 131 11 -4 14 6 14 44 0 76 22 88 38 21z m462 -108 c0 -5 -2 -10
-4 -10 -3 0 -8 5 -11 10 -3 6 -1 10 4 10 6 0 11 -4 11 -10z m20 -85 c0 -5 -5
-3 -10 5 -5 8 -10 20 -10 25 0 6 5 3 10 -5 5 -8 10 -19 10 -25z m3263 15 c-6
-22 -23 -38 -23 -21 0 17 12 41 20 41 5 0 6 -9 3 -20z m-488 -57 c-4 -10 -11
-33 -17 -50 -9 -32 -11 -33 -58 -33 -52 0 -54 2 -52 49 2 30 4 33 49 41 69 14
86 12 78 -7z m874 13 c-4 -4 -373 -63 -454 -72 -22 -3 -131 -16 -241 -30 -111
-13 -204 -24 -207 -24 -3 0 -8 -11 -11 -24 -4 -17 -17 -28 -41 -36 -40 -13
-55 -7 -55 21 0 25 8 25 -372 -17 -176 -19 -333 -33 -347 -31 -22 3 -21 4 7 6
19 0 109 10 200 21 230 27 229 27 392 45 169 18 808 101 1000 130 92 14 136
17 129 11z m113 -97 c21 -1 21 -1 -5 -11 -33 -12 -57 -5 -57 17 0 12 4 14 19
5 11 -5 30 -10 43 -11z m-2212 -18 c0 -11 -7 -55 -15 -98 -12 -62 -20 -83 -42
-102 l-27 -23 35 6 c32 7 33 6 15 -9 -22 -17 -76 -20 -76 -4 0 6 -7 3 -16 -5
-8 -9 -23 -16 -31 -16 -11 0 -5 11 19 35 72 72 69 175 -6 207 -30 13 -29 13
44 19 41 3 81 6 88 7 6 1 12 -7 12 -17z m2226 -22 c-27 -11 -96 -30 -155 -43
-150 -34 -531 -85 -531 -72 0 6 76 20 215 41 269 41 406 66 437 79 18 8 44 14
58 15 18 0 12 -5 -24 -20z m-2603 -26 c-13 -2 -23 -8 -23 -13 0 -5 7 -7 15 -4
8 4 15 1 15 -4 0 -6 9 -9 20 -7 11 2 20 -1 20 -6 0 -6 5 -7 10 -4 6 3 10 0 11
-7 0 -7 5 -3 11 10 18 36 34 26 35 -20 1 -36 0 -39 -7 -18 -6 20 -9 13 -11
-35 l-3 -60 -3 52 c-3 44 -7 51 -23 50 -16 -1 -20 -9 -22 -42 l-1 -40 -7 45
-7 45 -3 -60 -4 -60 -3 53 c-3 44 -7 52 -24 52 -12 0 -19 -7 -19 -20 0 -11 6
-19 13 -17 7 1 13 -11 14 -33 1 -19 -1 -27 -3 -17 -3 9 -9 17 -14 17 -5 0 -7
-7 -4 -15 4 -8 1 -15 -5 -15 -6 0 -10 3 -10 8 1 4 1 27 0 52 l-1 45 -40 2
c-26 2 -40 -2 -41 -10 0 -6 -4 -3 -9 8 -7 15 -9 10 -9 -22 -1 -24 3 -43 8 -43
5 0 7 10 5 23 -2 12 -2 16 2 9 3 -6 10 -9 16 -6 5 3 12 -5 16 -17 l6 -24 7 25
7 25 1 -27 c1 -26 -2 -28 -39 -28 l-40 0 0 65 c0 36 3 64 8 64 25 -4 62 2 57
10 -6 11 24 18 70 18 22 0 24 -1 8 -4z m147 -3 c1 11 6 8 20 -9 11 -13 20 -31
20 -40 -1 -13 -3 -13 -15 3 -15 19 -15 19 -15 -2 0 -12 -5 -22 -11 -22 -5 0
-7 -4 -4 -10 3 -5 1 -10 -4 -10 -7 0 -11 22 -11 53 0 37 3 48 10 37 9 -13 10
-13 10 0z m-323 -42 c-3 -8 -6 -5 -6 6 -1 11 2 17 5 13 3 -3 4 -12 1 -19z m20
-75 c-2 -21 -4 -6 -4 32 0 39 2 55 4 38 2 -18 2 -50 0 -70z m-91 52 c-4 -14
-2 -25 4 -25 5 0 10 8 11 18 0 10 5 6 11 -12 8 -21 13 -25 19 -15 6 11 9 9 9
-7 0 -18 -6 -21 -37 -20 -40 1 -48 14 -30 50 8 16 6 18 -9 12 -18 -6 -18 -5 0
9 27 20 29 19 22 -10z m2713 16 c16 -10 13 -11 -164 -40 -176 -29 -338 -51
-343 -47 -6 7 37 27 51 24 6 -1 28 3 47 9 19 7 69 15 110 18 41 4 83 11 93 17
10 5 52 13 95 17 42 5 82 9 87 10 6 0 16 -3 24 -8z m-1766 -8 c-13 -2 -33 -2
-45 0 -13 2 -3 4 22 4 25 0 35 -2 23 -4z m228 -4 c26 -14 15 -29 -22 -29 -31
0 -36 9 -17 28 15 15 15 15 39 1z m-318 -6 c-13 -2 -35 -2 -50 0 -16 2 -5 4
22 4 28 0 40 -2 28 -4z m-110 -10 c-7 -2 -21 -2 -30 0 -10 3 -4 5 12 5 17 0
24 -2 18 -5z m-676 -50 c-3 -10 -5 -4 -5 12 0 17 2 24 5 18 2 -7 2 -21 0 -30z
m130 -10 c-3 -10 -5 -2 -5 17 0 19 2 27 5 18 2 -10 2 -26 0 -35z m123 17 c0
-5 -2 -10 -4 -10 -3 0 -8 5 -11 10 -3 6 -1 10 4 10 6 0 11 -4 11 -10z m50 -22
c0 -5 -4 -8 -10 -8 -5 0 -10 10 -10 23 0 18 2 19 10 7 5 -8 10 -18 10 -22z
m17 10 c-3 -8 -6 -5 -6 6 -1 11 2 17 5 13 3 -3 4 -12 1 -19z m1560 16 c-3 -3
-12 -4 -19 -1 -8 3 -5 6 6 6 11 1 17 -2 13 -5z m-1627 -33 c0 -5 -9 -11 -20
-14 -11 -3 -20 -1 -20 3 0 5 8 11 18 13 9 3 18 5 20 6 1 0 2 -3 2 -8z m-169
-77 c107 -13 193 -15 429 -11 162 2 334 10 381 16 48 7 106 11 130 9 30 -2 -9
-10 -121 -26 -91 -12 -183 -24 -205 -26 -22 -2 37 -2 130 0 94 1 176 0 183 -5
24 -14 -338 -55 -599 -67 -226 -10 -315 11 -129 32 41 4 78 9 83 10 4 1 32 2
62 3 30 0 55 5 55 10 0 4 -77 9 -172 10 -172 2 -309 19 -374 46 -39 16 -46 30
-11 21 13 -3 84 -13 158 -22z m414 6 c-70 -11 -246 -11 -220 0 11 5 76 8 145
8 98 -1 114 -2 75 -8z m-1978 -177 c-3 -10 -5 -4 -5 12 0 17 2 24 5 18 2 -7 2
-21 0 -30z"/>
<path d="M3060 2810 c14 -4 34 -8 45 -8 16 0 15 2 -5 8 -14 4 -34 8 -45 8 -16
0 -15 -2 5 -8z"/>
<path d="M3025 2760 c-3 -5 -1 -10 4 -10 6 0 11 5 11 10 0 6 -2 10 -4 10 -3 0
-8 -4 -11 -10z"/>
<path d="M3088 2713 c7 -3 16 -2 19 1 4 3 -2 6 -13 5 -11 0 -14 -3 -6 -6z"/>
<path d="M582 2724 c-3 -72 20 -162 45 -171 8 -3 25 5 38 17 19 18 23 29 18
54 -9 49 -44 136 -54 136 -5 0 -9 7 -9 15 0 8 -8 15 -17 15 -15 0 -19 -11 -21
-66z"/>
<path d="M482 2579 c2 -6 8 -10 13 -10 5 0 11 4 13 10 2 6 -4 11 -13 11 -9 0
-15 -5 -13 -11z"/>
<path d="M503 2549 c-13 -13 -5 -49 11 -49 7 0 10 -20 8 -57 -3 -64 6 -87 31
-77 21 8 23 68 2 107 -8 15 -10 25 -5 22 6 -4 10 3 10 14 0 11 -4 23 -10 26
-5 3 -10 1 -10 -6 0 -8 -4 -8 -15 1 -8 7 -12 16 -9 21 7 12 0 11 -13 -2z"/>
<path d="M490 2418 c0 -9 5 -20 10 -23 13 -8 13 5 0 25 -8 13 -10 13 -10 -2z"/>
<path d="M525 2331 c-3 -5 -1 -12 5 -16 5 -3 10 1 10 9 0 18 -6 21 -15 7z"/>
<path d="M2560 2510 c0 -5 5 -10 11 -10 5 0 7 5 4 10 -3 6 -8 10 -11 10 -2 0
-4 -4 -4 -10z"/>
<path d="M2682 2390 c0 -14 2 -19 5 -12 2 6 2 18 0 25 -3 6 -5 1 -5 -13z"/>
<path d="M3146 1965 c-4 -33 -9 -70 -12 -82 -2 -12 0 -24 5 -27 11 -7 25 107
19 145 -3 14 -7 0 -12 -36z"/>
<path d="M3140 1796 c0 -8 5 -18 10 -21 6 -3 10 3 10 14 0 12 -4 21 -10 21 -5
0 -10 -6 -10 -14z"/>
<path d="M3158 1745 c-8 -8 3 -55 13 -55 5 0 9 -31 9 -69 0 -38 5 -82 11 -98
10 -26 11 -27 21 -9 6 11 8 41 4 75 -4 31 -9 76 -11 100 -4 45 -15 69 -15 35
-1 -17 -2 -16 -13 4 -7 12 -16 20 -19 17z"/>
<path d="M3162 1570 c0 -14 2 -19 5 -12 2 6 2 18 0 25 -3 6 -5 1 -5 -13z"/>
<path d="M3192 1460 c0 -14 2 -19 5 -12 2 6 2 18 0 25 -3 6 -5 1 -5 -13z"/>
<path d="M5268 1433 c6 -2 18 -2 25 0 6 3 1 5 -13 5 -14 0 -19 -2 -12 -5z"/>
<path d="M3520 4854 c-350 -15 -608 -35 -710 -55 -50 -9 -43 -9 180 11 247 21
625 32 987 29 214 -2 366 -1 338 3 -56 8 -677 17 -795 12z"/>
<path d="M1508 4843 c6 -2 18 -2 25 0 6 3 1 5 -13 5 -14 0 -19 -2 -12 -5z"/>
<path d="M4428 4823 c7 -3 16 -2 19 1 4 3 -2 6 -13 5 -11 0 -14 -3 -6 -6z"/>
<path d="M1998 4813 c7 -3 16 -2 19 1 4 3 -2 6 -13 5 -11 0 -14 -3 -6 -6z"/>
<path d="M2092 4788 c41 -13 84 -35 108 -55 22 -19 38 -29 35 -21 -13 32 -146
99 -194 97 -9 0 14 -10 51 -21z"/>
<path d="M2542 4784 c10 -10 20 -15 24 -12 3 4 -5 12 -18 18 -22 12 -22 12 -6
-6z"/>
<path d="M2713 4783 c9 -2 25 -2 35 0 9 3 1 5 -18 5 -19 0 -27 -2 -17 -5z"/>
<path d="M2603 4771 c-24 -4 -46 -10 -49 -14 -10 -10 13 -8 81 7 62 15 41 19
-32 7z"/>
<path d="M2468 4708 c-7 -16 4 -66 60 -273 16 -60 44 -166 62 -235 60 -231 91
-335 115 -376 25 -43 63 -74 90 -74 8 0 15 -5 15 -11 0 -5 5 -7 12 -3 6 4 32
7 56 5 60 -3 160 18 141 30 -19 12 345 12 410 -1 69 -13 657 14 633 29 -5 3
74 6 176 7 123 1 187 5 190 12 2 6 17 8 36 5 30 -5 530 21 644 33 37 4 52 10
52 20 0 10 6 13 18 10 43 -13 190 -25 238 -20 48 6 52 8 45 27 -7 19 -18 21
-132 24 -427 11 -441 12 -519 38 -27 9 -58 14 -71 11 -13 -3 -43 -8 -66 -10
-23 -2 -47 -7 -54 -11 -6 -4 -46 -9 -88 -10 -42 -2 -107 -10 -144 -19 -78 -18
-141 -22 -117 -6 8 5 44 19 79 31 35 12 59 24 53 28 -5 3 -13 16 -16 29 -6 18
-12 21 -29 16 -42 -13 -48 -25 -24 -45 12 -10 16 -18 10 -19 -7 0 -13 5 -13
11 0 6 -9 1 -20 -12 -19 -22 -21 -23 -30 -6 -6 9 -18 17 -26 17 -10 0 -12 -5
-8 -12 6 -10 5 -10 -8 -1 -15 13 -28 8 -28 -9 0 -5 5 -6 12 -2 7 4 8 3 4 -5
-4 -6 -11 -9 -16 -6 -4 3 -13 -2 -20 -10 -10 -12 -10 -15 1 -15 8 -1 1 -8 -14
-16 -16 -9 -27 -17 -25 -19 1 -2 62 3 133 11 72 8 139 13 150 11 14 -3 11 -5
-8 -6 -19 -1 -26 -5 -21 -13 4 -7 3 -8 -4 -4 -6 4 -40 2 -74 -3 -112 -18 -522
-35 -514 -22 4 5 -3 7 -14 4 -12 -3 -20 0 -20 7 0 7 -7 10 -16 6 -9 -3 -46 3
-83 13 -51 15 -89 19 -167 17 -56 -2 -106 -6 -110 -8 -5 -3 -52 -4 -104 -3
-89 2 -200 -9 -385 -39 -92 -15 -87 -18 -142 75 -23 41 -37 78 -39 104 -3 76
-41 180 -80 222 -38 41 -37 2 7 -164 49 -187 66 -230 113 -277 20 -20 33 -36
27 -36 -5 0 -24 17 -43 38 -51 57 -63 90 -178 517 -10 39 -37 135 -59 215 -22
80 -41 156 -43 170 -2 19 -5 21 -10 8z m2310 -765 c-10 -2 -26 -2 -35 0 -10 3
-2 5 17 5 19 0 27 -2 18 -5z m-538 -43 c0 -5 -4 -10 -10 -10 -5 0 -10 5 -10
10 0 6 5 10 10 10 6 0 10 -4 10 -10z m460 0 c-30 -5 -77 -8 -105 -7 l-50 0 55
7 c30 4 78 7 105 7 l50 0 -55 -7z m258 3 c-15 -2 -42 -2 -60 0 -18 2 -6 4 27
4 33 0 48 -2 33 -4z m-1341 -29 c-3 -3 -27 -7 -53 -9 -30 -2 -42 0 -33 6 16
10 96 13 86 3z m170 -50 c-3 -3 -12 -4 -19 -1 -8 3 -5 6 6 6 11 1 17 -2 13 -5z"/>
<path d="M4975 4528 c137 -119 270 -246 365 -349 58 -63 131 -137 162 -164 32
-28 69 -69 83 -92 22 -37 31 -43 60 -43 46 0 51 13 16 52 -16 18 -29 38 -30
43 0 6 -5 10 -10 10 -5 0 -76 62 -158 137 -151 140 -358 315 -473 401 -65 49
-65 49 -15 5z"/>
<path d="M4320 4407 c0 -3 10 -23 22 -44 12 -21 41 -77 65 -125 24 -49 45 -88
48 -88 7 0 -12 42 -68 150 -45 89 -67 123 -67 107z"/>
<path d="M659 4183 c-13 -16 -12 -17 4 -4 9 7 17 15 17 17 0 8 -8 3 -21 -13z"/>
<path d="M5760 4158 c0 -6 -9 -21 -19 -32 -11 -12 -21 -37 -22 -56 -2 -19 -7
-41 -12 -47 -5 -7 -6 -13 -1 -13 5 0 3 -4 -4 -8 -7 -5 -10 -16 -6 -25 8 -23
104 -86 120 -80 7 2 25 22 39 44 34 48 31 100 -9 159 -27 41 -86 81 -86 58z"/>
<path d="M640 4149 c0 -5 -5 -7 -12 -3 -7 4 -8 3 -4 -4 4 -6 13 -9 21 -5 17 6
20 23 5 23 -5 0 -10 -5 -10 -11z"/>
<path d="M5620 4131 c0 -5 7 -14 16 -21 11 -10 14 -23 9 -50 -8 -45 14 -71 41
-49 31 26 -5 129 -46 129 -11 0 -20 -4 -20 -9z"/>
<path d="M4295 4100 c-3 -6 1 -7 9 -4 18 7 21 14 7 14 -6 0 -13 -4 -16 -10z"/>
<path d="M5580 4075 c34 -35 34 -35 43 -13 10 27 -13 48 -52 48 -25 0 -25 0 9
-35z"/>
<path d="M4310 4080 c-9 -6 -10 -10 -3 -10 6 0 15 5 18 10 8 12 4 12 -15 0z"/>
<path d="M4496 4073 c-9 -10 -7 -41 4 -48 6 -3 7 1 4 9 -9 23 13 19 26 -4 8
-14 20 -20 43 -19 30 2 30 2 5 6 -16 3 -28 11 -28 19 0 12 4 13 21 3 17 -8 23
-8 29 2 6 9 12 8 25 -5 10 -9 24 -15 32 -12 8 3 27 6 41 7 25 1 25 1 -6 10
-18 5 -30 13 -28 18 3 4 -7 8 -22 8 -15 0 -52 3 -83 6 -31 4 -59 4 -63 0z"/>
<path d="M4217 4044 c-6 -10 9 -42 16 -34 3 3 1 14 -3 24 -3 11 -9 15 -13 10z"/>
<path d="M252 3917 c-18 -29 -32 -60 -31 -67 0 -8 9 2 18 23 10 20 21 34 26
30 4 -5 5 -2 1 5 -6 11 4 16 25 14 4 -1 5 9 2 21 -4 18 -3 19 7 7 9 -12 11
-12 8 -1 -8 29 -24 20 -56 -32z"/>
<path d="M5726 3904 c-6 -16 2 -18 22 -5 11 7 11 9 -1 14 -9 3 -18 -1 -21 -9z"/>
<path d="M210 3799 c-6 -11 -10 -25 -7 -32 2 -6 9 3 15 21 12 36 8 42 -8 11z"/>
<path d="M5360 3800 c0 -5 10 -10 23 -10 18 0 19 2 7 10 -19 13 -30 13 -30 0z"/>
<path d="M390 3780 c36 -12 62 -12 55 0 -3 6 -23 10 -43 9 -33 -1 -34 -2 -12
-9z"/>
<path d="M671 3741 c-46 -46 -35 -139 19 -161 41 -17 69 -4 91 43 37 82 22
118 -54 132 -28 5 -39 3 -56 -14z"/>
<path d="M4230 3730 c0 -5 7 -10 16 -10 8 0 12 5 9 10 -3 6 -10 10 -16 10 -5
0 -9 -4 -9 -10z"/>
<path d="M2800 3704 c0 -11 10 -30 23 -41 23 -22 126 -77 132 -71 2 2 -26 19
-62 37 -47 25 -69 43 -79 65 -10 24 -13 27 -14 10z"/>
<path d="M183 3640 c0 -30 2 -43 4 -27 2 15 2 39 0 55 -2 15 -4 2 -4 -28z"/>
<path d="M1365 3668 c-13 -41 -35 -193 -34 -239 2 -52 2 -51 10 21 9 92 25
174 39 200 13 24 13 30 0 30 -6 0 -13 -6 -15 -12z"/>
<path d="M165 3484 c-4 -53 -5 -125 -2 -161 4 -58 2 -67 -20 -94 -14 -16 -22
-35 -20 -41 4 -9 6 -8 7 2 0 8 11 23 24 32 23 17 27 16 101 -18 42 -19 79 -33
81 -31 3 2 -17 14 -43 27 -66 30 -112 67 -111 88 1 70 -4 292 -7 292 -2 0 -6
-43 -10 -96z"/>
<path d="M1466 3527 c-24 -35 -31 -91 -16 -126 12 -31 62 -61 99 -61 31 0 68
41 81 90 22 80 1 105 -99 117 -44 5 -50 3 -65 -20z"/>
<path d="M320 3479 c0 -11 66 -23 79 -14 22 13 10 20 -34 21 -25 1 -45 -2 -45
-7z"/>
<path d="M615 3241 c6 -40 46 -153 52 -148 2 2 -11 44 -27 93 -17 49 -29 74
-25 55z"/>
<path d="M7333 3207 c-30 -16 -74 -60 -89 -90 -13 -24 -9 -22 25 12 37 37 52
46 74 42 4 0 7 4 7 10 0 7 14 10 35 7 31 -4 34 -2 20 11 -17 18 -47 21 -72 8z"/>
<path d="M1091 3159 c-13 -5 -22 -11 -20 -14 8 -7 49 7 49 16 0 5 -1 9 -2 8
-2 0 -14 -5 -27 -10z"/>
<path d="M1200 3150 c0 -5 9 -10 19 -10 11 0 23 5 26 10 4 6 -5 10 -19 10 -14
0 -26 -4 -26 -10z"/>
<path d="M1280 3151 c0 -5 6 -12 13 -14 10 -4 10 -6 0 -6 -21 -2 -14 -21 7
-21 11 0 20 -4 20 -10 0 -5 -7 -7 -15 -4 -8 4 -15 1 -15 -4 0 -6 -8 -13 -17
-15 -14 -4 -13 -5 4 -6 12 0 24 5 26 12 3 6 6 3 7 -8 1 -18 3 -17 12 5 11 24
11 23 18 -17 9 -58 20 -66 20 -15 0 27 5 42 13 42 8 1 7 4 -3 13 -9 7 -21 23
-27 37 -6 14 -12 19 -12 13 -1 -9 -8 -10 -26 -3 -14 5 -25 6 -25 1z"/>
<path d="M122 3115 c0 -16 2 -22 5 -12 2 9 2 23 0 30 -3 6 -5 -1 -5 -18z"/>
<path d="M1360 3130 c0 -5 5 -10 10 -10 6 0 10 5 10 10 0 6 -4 10 -10 10 -5 0
-10 -4 -10 -10z"/>
<path d="M1568 3103 c6 -2 18 -2 25 0 6 3 1 5 -13 5 -14 0 -19 -2 -12 -5z"/>
<path d="M1420 3096 c0 -2 7 -7 16 -10 8 -3 12 -2 9 4 -6 10 -25 14 -25 6z"/>
<path d="M1613 3093 c-16 -6 -17 -23 -2 -23 6 0 17 7 25 15 16 16 4 20 -23 8z"/>
<path d="M4070 3086 c0 -3 9 -10 20 -16 11 -6 20 -8 20 -6 0 3 -9 10 -20 16
-11 6 -20 8 -20 6z"/>
<path d="M125 3022 c1 -29 7 -57 13 -62 7 -6 10 -7 8 -4 -3 3 -1 17 4 30 7 18
6 24 -5 24 -8 0 -16 13 -18 33 -2 17 -3 8 -2 -21z"/>
<path d="M1380 3059 c0 -5 5 -7 10 -4 6 3 10 8 10 11 0 2 -4 4 -10 4 -5 0 -10
-5 -10 -11z"/>
<path d="M680 3044 c0 -10 20 -75 25 -82 1 -1 15 5 31 14 l29 16 -27 -6 c-21
-5 -28 -3 -28 9 0 10 5 13 12 9 7 -5 8 -3 4 5 -5 7 -11 10 -14 6 -3 -3 -12 5
-19 17 -7 13 -12 18 -13 12z"/>
<path d="M1278 3043 c7 -3 16 -2 19 1 4 3 -2 6 -13 5 -11 0 -14 -3 -6 -6z"/>
<path d="M4170 3026 c0 -2 8 -10 18 -17 15 -13 16 -12 3 4 -13 16 -21 21 -21
13z"/>
<path d="M7560 3000 c6 -11 13 -20 16 -20 2 0 0 9 -6 20 -6 11 -13 20 -16 20
-2 0 0 -9 6 -20z"/>
<path d="M7476 2980 c16 -33 16 -34 0 -21 -15 13 -19 13 -27 0 -8 -12 -10 -12
-19 1 -7 12 -10 12 -10 1 0 -7 -6 -11 -13 -8 -7 3 -21 -1 -30 -8 -15 -11 -11
-13 29 -19 25 -3 56 -3 69 0 15 4 24 0 28 -10 9 -22 -30 -30 -104 -23 -32 3
-59 1 -59 -4 0 -5 6 -9 13 -10 6 0 39 -1 72 -2 57 -2 60 -3 57 -26 -2 -15 0
-21 7 -17 23 15 9 -10 -26 -46 -33 -34 -35 -38 -16 -38 12 0 24 4 27 9 3 5 15
7 26 4 15 -4 20 0 20 16 0 20 1 20 18 4 10 -10 16 -25 14 -33 -3 -8 -2 -12 3
-8 4 4 9 21 11 37 3 24 0 29 -12 24 -14 -5 -15 -3 -4 17 10 19 10 25 -3 35 -9
6 -13 20 -10 35 2 14 -3 39 -11 55 -9 17 -16 26 -16 22 0 -4 -11 5 -26 20
l-25 28 17 -35z"/>
<path d="M1680 2970 c0 -5 5 -10 10 -10 6 0 10 5 10 10 0 6 -4 10 -10 10 -5 0
-10 -4 -10 -10z"/>
<path d="M915 2960 c3 -5 15 -10 26 -10 10 0 19 5 19 10 0 6 -12 10 -26 10
-14 0 -23 -4 -19 -10z"/>
<path d="M4467 2953 c18 -2 50 -2 70 0 21 2 7 4 -32 4 -38 0 -55 -2 -38 -4z"/>
<path d="M955 2940 l-30 -8 33 -1 c17 0 40 -9 50 -18 9 -10 30 -22 46 -28 17
-5 28 -14 25 -18 -8 -16 28 -26 60 -17 17 5 29 5 26 1 -2 -5 10 -14 28 -22
115 -46 134 -58 141 -90 3 -17 7 -43 8 -58 0 -14 4 -6 7 19 3 25 3 47 0 50 -3
3 -4 21 -3 40 3 54 -20 73 -116 99 -47 12 -105 29 -130 36 -63 20 -110 25
-145 15z"/>
<path d="M160 2903 c0 -4 5 -15 10 -23 8 -13 10 -13 10 2 0 9 -4 20 -10 23 -5
3 -10 3 -10 -2z"/>
<path d="M6805 2893 c-236 -10 -619 -38 -863 -64 -307 -32 -572 -66 -580 -73
-2 -3 7 -25 22 -49 l25 -45 43 9 c24 4 185 20 358 34 379 30 377 30 385 55 4
11 20 27 37 36 40 21 128 12 178 -18 39 -23 90 -22 375 7 77 7 173 17 213 20
l72 7 0 -32 c0 -30 -2 -32 -27 -25 -28 8 -72 8 -152 0 -60 -6 -83 -14 -75 -27
5 -8 -16 -9 -67 -5 -41 3 -60 2 -44 -2 22 -5 -8 -10 -104 -19 -110 -11 -136
-11 -143 0 -7 10 -8 10 -7 -2 3 -20 -11 -50 -22 -50 -6 0 -5 8 1 19 13 25 14
59 0 45 -5 -5 -10 -24 -12 -42 -3 -36 -27 -57 -56 -49 -12 3 -11 5 5 6 12 0
25 5 28 11 4 6 -1 7 -12 4 -17 -5 -17 -5 -1 8 10 8 22 27 28 43 10 26 8 32
-19 59 -17 16 -34 27 -38 22 -4 -4 -1 -11 6 -16 20 -12 6 -38 -30 -58 -50 -28
-66 -43 -51 -48 6 -3 9 -11 5 -16 -4 -7 2 -9 17 -5 15 4 20 3 13 -4 -14 -14
-58 -1 -80 24 l-18 22 25 -20 25 -20 -24 28 c-24 26 -38 36 -27 18 3 -4 -32
-13 -77 -19 -135 -19 -518 -44 -577 -39 -36 4 -46 3 -30 -3 23 -7 22 -8 -11
-9 -21 -1 -42 5 -49 14 -10 12 -10 15 1 16 8 0 1 5 -15 10 -17 4 -32 7 -34 4
-2 -2 21 -28 51 -59 87 -86 90 -87 518 -56 155 11 284 19 286 16 3 -2 -31 -7
-74 -11 -43 -3 -93 -12 -111 -21 -38 -16 -253 -34 -421 -34 l-115 0 -63 68
c-35 37 -69 67 -75 67 -7 0 -12 8 -10 16 1 9 -5 22 -13 29 -11 9 -15 9 -15 1
0 -7 -5 -9 -12 -5 -6 4 1 -9 16 -29 16 -20 32 -35 36 -32 5 3 12 0 16 -6 4 -8
3 -9 -4 -5 -28 17 -8 -14 37 -61 57 -57 99 -73 193 -73 127 0 1078 90 1324
126 53 8 99 35 117 71 18 35 33 125 18 103 -6 -8 -11 -27 -11 -42 0 -15 -4
-30 -10 -33 -5 -3 -10 -1 -10 5 0 5 -12 -3 -27 -20 -18 -19 -41 -32 -63 -35
l-35 -5 39 12 c54 18 76 62 76 151 0 104 -3 107 -113 105 -51 -1 -123 -3 -162
-5z m135 -270 c-14 -2 -74 -14 -135 -27 -60 -13 -119 -24 -130 -24 -11 0 -101
-3 -200 -5 l-180 -4 270 28 c149 15 284 30 300 32 40 5 108 6 75 0z m-407 -70
c-7 -2 -19 -2 -25 0 -7 3 -2 5 12 5 14 0 19 -2 13 -5z"/>
<path d="M1040 2860 c0 -6 7 -10 15 -10 8 0 15 2 15 4 0 2 -7 6 -15 10 -8 3
-15 1 -15 -4z"/>
<path d="M7284 2855 c-4 -8 -10 -12 -15 -9 -5 3 -9 0 -9 -5 0 -6 9 -11 20 -11
13 0 20 7 20 20 0 24 -8 26 -16 5z"/>
<path d="M6256 2769 c-25 -20 -35 -49 -17 -49 14 0 74 44 79 58 6 19 -33 14
-62 -9z"/>
<path d="M1128 2753 c7 -3 16 -2 19 1 4 3 -2 6 -13 5 -11 0 -14 -3 -6 -6z"/>
<path d="M7490 2740 c-8 -5 -10 -10 -5 -10 6 0 17 5 25 10 8 5 11 10 5 10 -5
0 -17 -5 -25 -10z"/>
<path d="M1225 2725 c17 -8 39 -14 50 -14 11 0 0 7 -25 15 -56 17 -64 17 -25
-1z"/>
<path d="M6281 2713 c-47 -29 -42 -44 7 -19 30 15 61 46 46 46 -5 -1 -29 -13
-53 -27z"/>
<path d="M6763 2733 c9 -2 23 -2 30 0 6 3 -1 5 -18 5 -16 0 -22 -2 -12 -5z"/>
<path d="M4596 2670 c8 -54 41 -133 53 -126 5 3 11 15 14 26 3 11 1 18 -4 14
-5 -3 -9 -13 -10 -22 0 -14 -2 -13 -9 3 -12 29 -12 78 0 70 6 -4 8 -16 4 -27
-5 -16 -3 -20 9 -15 8 3 21 0 29 -6 16 -14 43 -71 29 -62 -5 3 -12 1 -16 -5
-4 -6 -11 -7 -17 -4 -6 4 -9 1 -6 -7 3 -8 15 -20 29 -26 30 -16 135 -17 145
-2 5 8 -6 10 -35 7 -25 -2 -40 0 -38 7 2 5 11 9 21 7 9 -2 16 2 16 8 0 5 -7
10 -15 10 -21 0 -19 13 6 28 12 8 18 9 14 3 -3 -6 0 -14 9 -17 8 -3 12 -12 9
-20 -4 -10 4 -14 28 -16 81 -4 110 -6 124 -12 8 -3 15 -1 15 5 0 6 8 5 21 -2
15 -7 19 -8 15 0 -5 7 -1 9 8 5 9 -3 16 -10 16 -15 0 -12 117 -12 125 1 3 5
12 7 20 3 8 -3 15 0 15 6 0 6 -5 11 -11 11 -5 0 -9 10 -7 22 3 23 -30 48 -64
48 -9 0 -20 9 -23 20 -3 11 -10 20 -15 20 -5 0 -15 2 -23 6 -9 3 -19 -6 -27
-25 -7 -17 -16 -31 -21 -31 -5 0 -3 13 6 30 l15 30 -42 -5 c-24 -2 -69 -7
-101 -11 -58 -6 -58 -6 -40 -26 15 -17 27 -20 81 -15 34 2 62 1 62 -3 0 -5 3
-16 6 -25 6 -14 -3 -16 -77 -13 -81 3 -84 4 -82 26 3 24 -32 67 -42 52 -13
-21 -74 -11 -100 17 -14 15 -25 24 -25 20 0 -5 -12 5 -26 22 -14 17 -34 31
-44 31 -10 0 -21 6 -24 13 -3 6 -3 -8 0 -33z m488 -76 c8 -3 12 -12 10 -19 -7
-17 -34 -8 -34 11 0 16 2 16 24 8z m-336 -32 c2 -7 -3 -12 -12 -12 -9 0 -16 7
-16 16 0 17 22 14 28 -4z m349 -78 c-3 -3 -12 -4 -19 -1 -8 3 -5 6 6 6 11 1
17 -2 13 -5z"/>
<path d="M6155 2690 c-3 -5 1 -10 9 -10 9 0 16 5 16 10 0 6 -4 10 -9 10 -6 0
-13 -4 -16 -10z"/>
<path d="M1420 2656 c14 -8 34 -15 45 -16 31 0 4 19 -35 25 l-35 6 25 -15z"/>
<path d="M5120 2610 c0 -16 20 -22 51 -15 17 4 28 9 25 12 -9 9 -76 12 -76 3z"/>
<path d="M5215 2600 c-3 -5 -1 -10 4 -10 6 0 11 5 11 10 0 6 -2 10 -4 10 -3 0
-8 -4 -11 -10z"/>
<path d="M5225 2540 c3 -5 14 -10 23 -10 15 0 15 2 2 10 -20 13 -33 13 -25 0z"/>
<path d="M6128 2473 c7 -3 16 -2 19 1 4 3 -2 6 -13 5 -11 0 -14 -3 -6 -6z"/>
<path d="M1305 2360 c-3 -5 -2 -10 4 -10 5 0 18 -3 28 -7 17 -6 17 -6 1 10
-19 20 -24 21 -33 7z"/>
<path d="M7035 2359 c-5 -7 5 -8 32 -3 51 9 54 14 10 14 -20 0 -39 -5 -42 -11z"/>
<path d="M6950 2353 c0 -5 12 -9 27 -10 19 -1 22 1 12 8 -17 11 -39 12 -39 2z"/>
<path d="M6830 2339 c-18 -6 -12 -7 24 -4 27 2 51 7 54 10 8 8 -50 4 -78 -6z"/>
<path d="M6745 2330 c-25 -11 1 -11 35 0 20 6 21 8 5 8 -11 0 -29 -3 -40 -8z"/>
<path d="M6656 2320 c6 -6 21 -6 39 -1 30 9 30 9 -9 10 -26 1 -37 -2 -30 -9z"/>
<path d="M6973 2323 c9 -2 23 -2 30 0 6 3 -1 5 -18 5 -16 0 -22 -2 -12 -5z"/>
<path d="M6750 2307 c-47 -6 -76 -12 -65 -14 11 -2 70 3 130 11 61 7 90 13 65
13 -25 0 -83 -5 -130 -10z"/>
<path d="M1220 2260 c0 -5 5 -10 11 -10 5 0 7 5 4 10 -3 6 -8 10 -11 10 -2 0
-4 -4 -4 -10z"/>
<path d="M6214 2105 c-37 -41 -79 -91 -93 -111 -25 -35 -25 -36 -6 -50 27 -20
36 -18 111 24 65 37 68 38 86 20 21 -21 25 -22 58 -4 16 9 31 11 41 5 12 -6
33 4 79 36 35 25 65 43 68 41 2 -2 -4 -16 -13 -30 -16 -24 -16 -26 0 -32 11
-5 25 3 43 24 15 17 40 39 57 49 28 17 29 17 22 0 -29 -75 -14 -90 47 -48 51
35 56 37 56 16 0 -9 11 -21 25 -27 22 -10 30 -8 53 10 15 12 51 35 81 52 42
25 56 29 62 18 15 -23 10 -36 -16 -42 -14 -4 -25 -11 -25 -17 0 -12 30 -4 80
22 20 10 28 18 18 19 -23 0 -32 18 -19 34 22 26 -19 26 -70 1 -37 -19 -49 -22
-49 -11 0 21 -46 28 -84 12 -19 -8 -52 -26 -73 -40 -46 -32 -57 -33 -42 -5 9
17 8 23 -2 30 -19 12 -26 11 -58 -5 -23 -13 -31 -13 -47 -2 -17 12 -26 9 -79
-26 -34 -23 -61 -35 -63 -29 -6 19 -33 12 -69 -19 -18 -16 -38 -30 -43 -30
-16 0 -11 19 10 40 18 18 36 25 84 32 11 2 18 7 15 13 -8 18 -62 3 -166 -45
-56 -27 -103 -45 -103 -41 0 11 46 78 86 124 29 35 36 67 14 67 -5 0 -39 -34
-76 -75z m666 -4 c0 -13 -51 -61 -66 -61 -22 0 -16 16 17 44 31 27 49 33 49
17z"/>
<path d="M7787 2140 c-3 -11 -1 -20 4 -20 5 0 9 9 9 20 0 11 -2 20 -4 20 -2 0
-6 -9 -9 -20z"/>
<path d="M3952 1528 c-24 -24 -13 -38 28 -38 39 0 39 1 28 25 -12 27 -37 32
-56 13z"/>
<path d="M4048 1403 c6 -2 18 -2 25 0 6 3 1 5 -13 5 -14 0 -19 -2 -12 -5z"/>
</g>
</svg>
